<?xml version="1.0" encoding="UTF-8" standalone="no"?>
<!DOCTYPE svg PUBLIC "-//W3C//DTD SVG 1.1//EN" "http://www.w3.org/Graphics/SVG/1.1/DTD/svg11.dtd">
<svg width="100%" height="100%" viewBox="0 0 574 478" version="1.1" xmlns="http://www.w3.org/2000/svg" xmlns:xlink="http://www.w3.org/1999/xlink" xml:space="preserve" xmlns:serif="http://www.serif.com/" style="fill-rule:evenodd;clip-rule:evenodd;stroke-linejoin:round;stroke-miterlimit:2;">
    <g transform="matrix(1,0,0,1,0,-45)">
        <path d="M550.57,317.44C551.98,312.52 552.31,307.63 551.16,302.56C549.47,295.11 546.33,289.16 537.87,287.88C529.31,286.6 523.66,290.3 520.36,297.99C520.12,297.12 519.86,296.25 519.68,295.37C519.16,292.82 520.9,288.09 516.54,288.76C510.35,289.72 503.84,287.27 498.03,290.63C497.56,290.9 497.5,292.95 498,293.62C501.66,298.51 498.77,303.2 498.02,308.07C497.11,314.1 497.39,320.18 500.37,325.83C503.32,331.4 507.53,334.65 514.17,334.72C520.55,334.79 525.49,332.89 528.66,327.03C529.37,325.71 529.2,323.16 531.76,323.38C531.21,326.35 529.58,330.41 533.05,331.57C538.59,333.41 544.9,332.53 550.21,330.58C553.22,329.47 551.52,325.34 549.65,322.45C548.97,321.41 550.1,319.11 550.57,317.44ZM516.1,314.83C515.48,316.92 514.51,320 511.58,319.32C509.06,318.75 507.52,316.58 507.18,313.51C506.17,304.26 511.59,297.81 520.25,298.34C518.9,303.85 517.71,309.39 516.1,314.83ZM531.96,323.15C530.47,317.36 533.46,312.2 534.54,306.78C534.93,304.87 536.05,302.32 538.64,302.98C540.57,303.47 541.95,305.19 542.41,307.61C543.83,315.11 540.2,320.68 531.96,323.15ZM547.14,361.29C546.12,351.2 536.83,344.41 527.39,347.08C524.46,347.9 521.86,349.87 519.02,351.36C518.68,344.25 518.63,344.48 507.32,341.84C500.7,340.29 495.09,338.76 498.66,349.04C499.22,350.64 497.64,351.87 496.82,353.21C494.48,357.07 493.03,361.23 492.17,365.7C490.48,374.5 492.88,382.52 498.69,386.28C505.59,390.75 512.29,389.89 520.3,383.51C523.39,377.79 526.44,372.04 529.6,366.36C530.72,364.35 531.8,361.8 534.95,363.33C537.51,364.57 537.97,366.97 537.42,369.4C536.2,374.75 533.76,379.22 527.93,380.89C525.73,381.52 523.21,381.42 521.55,383.42C520.51,388.28 522.8,390.56 527.44,391.24C530.05,391.62 532.66,392.16 535.18,392.91C540.36,394.44 542.86,390.98 541.8,387.38C540.68,383.58 542.45,381.67 543.66,378.97C546.15,373.36 547.76,367.5 547.14,361.29ZM545.65,263.64C541.66,249.71 537.69,235.78 533.72,221.85C533.07,219.59 531.54,219.02 529.47,219.66C527.8,220.17 524.86,220.62 525.58,222.58C528.22,229.79 522.15,229.08 518.77,230.2C512.01,232.44 505.04,234.05 498.17,235.99C496.14,236.57 493.86,237.93 493.04,234.75C492.07,230.96 490.34,230.41 486.73,231.82C481.96,233.68 484.87,236.84 485.41,238.99C487.64,247.92 490.48,256.7 492.95,265.58C496.05,276.767 503.143,280.43 514.23,276.57C516.2,275.88 519.53,275.82 517.98,272.07C516.97,269.63 517.07,265.61 512.78,267.84C504.2,268.4 499.85,264.5 498.67,255.26C497.87,248.94 503.77,251.71 506.38,250.12C507.48,249.46 510.44,247.28 511.75,250.48C512.98,253.5 510.7,255.02 508.35,255.68C504.78,256.69 505.65,258.77 506.37,261.18C507.32,264.36 509.01,264.19 511.76,263.24C516.49,261.61 521.43,260.61 526.26,259.25C528.29,258.67 530.41,258.13 529.88,255.09C529.42,252.5 528.91,250.36 525.48,251.09C522.7,251.68 520.49,250.58 520.18,247.8C519.91,245.3 522.41,245.28 524.2,245.05C526.71,244.72 529.31,241.42 531.76,245.3C536.15,252.27 535.03,259.36 527.82,263.46C524.32,265.45 525.25,267.02 525.97,269.7C526.96,273.43 529.3,272.29 531.53,271.71C535.11,270.78 538.65,269.72 542.19,268.69C544.72,267.96 546.55,266.76 545.65,263.64ZM514.43,185.59C508.88,175.99 502.94,166.61 497.05,157.21C496.41,156.18 496.19,153.6 493.81,155.23C492.19,156.35 488.64,157.13 489.93,159.35C493.76,165.96 488.1,166.88 484.69,169.11C479.16,172.72 473.5,176.14 467.88,179.62C465.07,181.36 462.29,183.04 459.91,178.92C458.14,175.85 456.41,178.4 454.8,179.2C452.55,180.32 452.92,181.79 454.14,183.71C458.13,189.93 461.89,196.3 465.8,202.57C466.71,204.03 467.52,206.2 469.91,204.23C471.35,203.04 474.72,202.83 473.01,199.89C470.1,194.86 473.8,193.27 477.04,191.56C479.75,190.14 482.22,185.63 485.69,191.53C488.63,196.53 487.47,199.14 482.91,201.55C481.05,202.53 479.29,203.76 477.66,205.1C472.26,209.51 471.84,215.73 476.26,221.94C480.56,227.96 486,227.23 491.77,224.73C493.88,223.82 495.65,222.63 494.1,219.96C492.99,218.05 491.59,217.51 489.54,218.92C488.56,219.59 487.19,219.71 486,220.07C488.87,213.97 497.24,212.89 497.64,204.81C497.71,203.44 499.16,204.36 500.09,204.73C505.87,207.02 511.22,206.48 515.05,201.25C518.85,196.07 517.27,190.51 514.43,185.59ZM498.61,193.6C494.19,192.15 490.79,188.37 490.71,184.59C490.62,180.7 496.26,178.43 499.41,178.3C503.69,178.13 504.84,183.46 505.34,186.95C505.92,191.01 501.88,192.32 498.61,193.6ZM285.77,119.77C170.68,120.79 86.36,214.82 87.55,320.25C88.76,428.37 177.78,516.93 286.64,516.73C396.31,516.54 485.5,427.31 485.11,318.19C484.71,208.03 395.4,118.79 285.77,119.77ZM475.31,135.26C467.57,124.32 456.6,116.6 447.11,107.41C445.17,105.53 443.69,107.07 442.5,108.56C441.46,109.88 439.31,111.19 441.65,113.1C445.97,116.62 442.74,119.03 440.45,121.53C435.8,126.62 431.04,131.61 426.43,136.73C424.03,139.39 421.97,142.2 417.96,138.88C415.47,136.83 414.3,139.43 412.88,140.86C411.58,142.17 411.22,143.37 412.81,144.82C418.89,150.34 424.91,155.93 430.96,161.5C432.72,163.11 434.24,162.65 435.74,161.06C437.05,159.67 438.73,158.09 436.86,156.37C430.18,150.24 437.29,147.43 440.18,144.6C443.99,140.86 445.73,146.29 448.16,147.95C451.41,150.17 453.99,153.27 457.86,154.73C466.82,158.14 476.9,151.56 477.06,141.65C477.34,139.57 476.68,137.21 475.31,135.26ZM457.39,142.74C453.41,142.82 448.47,140.18 448.62,136.42C448.75,132.81 452.68,128.17 456.66,127.85C459.97,127.6 462.32,131.97 463.74,135.47C462.69,138.94 461.15,142.66 457.39,142.74ZM390.29,112.84C385.68,109.8 384.23,112.76 382.48,116.45C383.22,110.6 386.78,105.75 383.74,100.17C382.89,98.6 383.54,97.72 385.14,97.42C392.19,96.09 394.63,91.35 394.43,84.79C394.21,77.76 389.01,74.8 383.52,72.62C373.48,68.63 363.25,65.12 353.15,61.29C351.21,60.55 349.38,59.98 348.41,62.17C347.62,63.97 345.88,67.04 347.91,67.9C355.33,71.02 351.04,75.36 349.65,79.39C347.5,85.6 345.19,91.75 342.97,97.93C342.02,100.6 341.02,103.05 337.38,101.19C333.53,99.22 333.97,102.9 332.85,104.63C331.18,107.21 332.46,108.5 334.77,109.35C342.19,112.1 349.63,114.82 357.06,117.55C359.25,118.35 360.47,117.6 361.15,115.37C361.74,113.44 363.71,111.02 360.93,109.95C355.35,107.8 357.41,104.49 358.93,101.08C360.05,98.56 359.39,94.19 364.75,96.23C369.38,97.99 371.12,100.25 368.74,105.12C367.51,107.66 367.03,110.64 366.61,113.48C365.62,120.27 369.52,124.01 375.44,125.6C381.07,127.1 386.92,127.05 389.59,120.56C390.48,118.42 395.14,116.04 390.29,112.84ZM378.01,85.49C377.76,87.6 376.33,90.21 372.14,89.36C369.2,88.77 364.48,89.35 365.14,84.75C365.56,81.86 365.09,76.21 370.39,76.9C373.8,77.34 378.64,78.33 378.01,85.49ZM327.97,56.45C321.37,56.11 314.75,56.05 308.14,55.89C308.43,59.11 305.84,63.57 312.16,64.09C314.42,64.28 314.44,66.69 314.32,68.57C313.8,76.45 313.38,84.33 312.62,92.19C312.14,97.15 308.43,98.67 304.09,98.43C299.7,98.19 296.69,96.35 296.72,91.12C296.76,82.95 297.36,74.83 298.33,66.72C298.58,64.63 299.31,62.63 301.36,62.88C307.82,63.67 306.09,59.09 306.42,55.79C297.74,52.81 288.53,54.72 279.71,52.94C277.3,52.45 276.19,53.85 276.15,55.99C276.12,57.89 275.05,60.44 278.28,61.05C282.59,61.85 282.54,65.04 282.3,68.32C281.78,75.43 281.01,82.54 280.79,89.66C280.5,98.74 285.23,104.75 294.11,106.57C299.27,107.63 304.52,108.1 309.84,106.93C317.08,105.35 321.84,101.5 322.59,93.86C323.31,86.51 323.64,79.12 324.37,71.77C324.66,68.86 324.01,64.85 328.9,64.97C333,65.07 331.7,62.11 332,60C332.47,56.78 329.93,56.56 327.97,56.45ZM265.97,101.19C263.22,95.7 266.65,87.59 259.45,84.28C256.9,83.11 253.66,84.68 254.11,88.93C254.28,90.48 254.23,92.13 253.9,93.66C252.34,100.76 245.99,100.95 240.79,101.66C235.61,102.36 236.69,97.29 236.36,94.32C236.18,92.66 233.55,90.23 236.88,88.92C240.09,87.67 241.42,90.19 241.88,92.43C242.8,96.9 245.32,94.88 247.76,94.45C250.98,93.89 250.38,92.09 249.9,89.82C248.87,84.94 248.13,80 247.27,75.08C245.39,73.94 246.98,68.92 242.39,70.77C240.34,71.6 237.5,71.41 238.2,75.08C238.62,77.3 237.99,79.44 235.26,79.81C232.15,80.23 233.03,77.46 232.63,75.99C231.95,73.47 229.38,69.81 233.12,68.59C238.25,66.92 244.23,63.86 248.84,70.17C249.36,70.73 250.13,71.2 250.35,71.85C251.49,75.12 252.93,77.64 257.13,76.2C261.89,74.57 259.8,71.43 259.06,68.45C258.31,65.38 257.59,62.27 257.23,59.14C256.94,56.6 256.24,55.1 253.36,55.68C238.88,58.59 224.39,61.48 209.91,64.4C207.64,64.86 207.03,66.35 207.4,68.52C207.7,70.34 208,73.26 209.9,72.78C217.71,70.83 216.23,76.66 217.11,80.63C218.53,87.05 220.04,93.45 221.4,99.88C222.02,102.81 222.56,105.97 218.22,106.48C214.89,106.87 215.42,108.73 216.02,110.98C216.71,113.55 217.67,115.3 220.85,114.62C234.8,111.64 248.76,108.72 262.72,105.84C265.39,105.29 267.55,104.34 265.97,101.19ZM204.13,117.97C203.3,116.51 202.77,113.53 200.57,114.73C193.85,118.4 193.23,112.89 191.32,109.16C188.21,103.08 185.02,97.03 182.11,90.86C181.34,89.23 178.73,87.36 181.36,85.37C183.58,83.68 185.98,84.56 187.91,86.13C189.32,87.27 190.68,88.64 191.56,90.19C193.36,93.35 195.3,91.81 197.52,90.89C200.41,89.69 199.91,87.89 198.86,85.8C196.97,82.05 194.95,78.36 193.24,74.53C191.92,71.55 190.4,71.6 187.7,72.96C175.48,79.13 163.13,85.04 150.85,91.09C149,92.01 147,92.92 148.47,95.74C150.65,99.93 152.72,104.17 154.71,108.45C155.79,110.77 157.45,110.78 159.2,109.69C160.74,108.73 163.71,108.67 162.38,105.4C161.7,103.73 161.38,101.91 160.9,100.15C160.87,97.09 162.11,94.35 164.69,93.61C167.81,92.71 167.86,96.42 168.82,98.19C172.2,104.42 175.17,110.87 178.31,117.23C179.95,120.56 182.19,123.75 176.84,126.21C174.2,127.42 175.79,129.63 176.71,131.61C177.55,133.41 178.44,134.19 180.28,133.27C187.82,129.51 195.35,125.74 202.86,121.93C204.52,121.08 205.06,119.62 204.13,117.97ZM156.07,138.88C150,131.53 143.55,124.5 137.18,117.4C134.99,114.96 132.46,112.74 136.06,109.49C138.22,107.55 136.33,106.36 135.11,105.01C133.69,103.42 132.38,102.69 130.47,104.45C126.38,108.22 122.2,111.89 118,115.53C116.44,116.89 115.36,118.16 117.15,120.11C118.53,121.61 119.62,123.99 122.17,121.75C125.56,118.78 127.68,120.81 129.92,123.43C133.53,127.65 137.31,131.72 142.55,137.55C130.78,133.45 121.32,130.22 111.92,126.84C109.65,126.02 107.54,124.73 105.3,126.7C100.53,130.9 95.78,135.12 91.01,139.32C89.65,140.52 88.89,141.87 90.61,143.23C91.94,144.29 93.05,147.51 94.73,145.98C100.95,140.31 102.91,146.73 105.8,149.61C110.11,153.9 113.98,158.63 118.03,163.17C120.32,165.74 123.35,168.08 119.23,171.69C116.61,173.99 119.45,175.27 120.62,176.79C122.23,178.86 123.56,178.08 125.16,176.6C129.24,172.82 133.41,169.13 137.65,165.53C139.26,164.16 140.38,162.82 138.47,161.11C137.01,159.81 136.1,156.2 133.09,159.26C130.06,162.35 127.95,160.37 125.88,158.01C121.8,153.36 117.7,148.72 113.61,144.08C124.76,146.58 135.12,150.18 145.5,153.71C152.66,156.14 155.08,149.46 158.92,146.17C162.99,142.69 157.7,140.84 156.07,138.88ZM83.73,165.12C68.92,165.04 54.83,180.18 54.81,196.18C54.8,209.61 69.01,222.88 83.32,222.8C97.18,222.72 111.48,207.09 111.79,191.69C112.07,177.77 98.8,165.2 83.73,165.12ZM98.66,203.71C96.75,206.81 93.72,208.96 89.99,208.03C81.05,205.81 73.37,201.33 67.54,194.02C64.97,190.81 65.84,187.53 67.5,184.4C69.22,181.14 71.97,179.25 77.83,179.66C85.49,181.53 93.61,186.01 99.46,194.08C101.89,197.42 100.48,200.75 98.66,203.71ZM87.56,395.63C86.03,389.23 84.36,382.86 82.52,376.54C81.85,374.25 81.77,371.26 77.57,372.02C74.12,372.65 73.75,374.01 73.59,377.26C73.27,383.84 66.77,381.58 63.11,383.02C59.96,384.26 60.21,380.05 59.56,378.16C57.91,373.39 61.67,372.44 65.04,371.38C67.81,370.51 70.76,369.98 73.27,368.63C79.03,365.51 80.48,357.78 76.86,351.2C73.95,345.91 67.47,343.82 61.79,346.24C60.28,346.88 58.71,347.23 59.19,349.42C59.54,351 59.92,352.56 61.71,353.12C63.24,353.6 65.21,352.03 66.53,354.05C61.25,356.86 53.98,356.36 51.71,363.58C44.21,358.81 39.28,358.03 34.67,361.2C28.68,365.31 28.53,371.25 30.09,377.51C32.71,387.97 35.55,398.39 38.07,408.88C38.66,411.32 39.29,412.74 42.14,412.27C44.68,411.84 47.08,411.4 46.42,408.02C45.75,404.57 47.53,403.36 50.52,402.61C58.19,400.69 65.8,398.48 73.48,396.6C75.91,396.01 78.94,394.96 79.78,399.01C80.72,403.54 83.93,401.16 86.08,400.77C89.32,400.18 88,397.46 87.56,395.63ZM52.28,384.09C51.94,388.24 46.5,388.07 43.43,388.02C38.36,387.94 40.11,382.9 39.75,379.99C39.23,375.84 43.01,375.25 45.78,374.25C51.32,375.55 52.59,380.43 52.28,384.09ZM75.57,234.68C73.21,233.42 69.98,229.67 67.53,234C65.71,237.22 64.48,241.04 70.14,243.31C75.23,245.35 76.51,250.18 75.02,255.34C73.58,260.33 69.69,262.23 64.77,262.54C60.15,262.84 55.79,261.8 51.62,260.04C45.85,257.61 39.87,254.6 40.73,247.23C41.6,239.7 47.06,236.59 54.46,237.48C57.06,237.79 57.66,236.51 58.27,234.64C58.84,232.9 60.24,230.31 58.58,229.51C52.64,226.66 46.14,223.91 39.73,224.45C35.98,224.77 36.32,229.83 37.73,233.66C38.09,234.64 35.84,236.55 34.82,238.06C27.15,249.47 28.82,265.32 39.18,273.1C48.35,279.98 58.72,282.71 69.75,277.58C80.67,272.51 84.05,262.78 84.9,251.76C85.49,243.99 82.23,238.25 75.57,234.68ZM60.2,311.09C61.98,310.22 65.49,307.77 65.58,313.09C65.64,316.75 68.53,316.1 70.83,316.19C74.05,316.32 73.87,313.99 73.94,311.84C74.19,304.98 74.43,298.12 74.69,291.25C74.76,289.27 74.49,287.31 72.18,286.99C70.19,286.72 66.98,286 66.57,288.43C65.43,295.28 59.81,294.85 55.26,296.26C45.94,299.16 36.69,302.3 27.26,304.78C19.97,306.69 23.58,312.41 22.58,316.44C21.7,319.97 22.54,322.63 27,324C37.83,327.35 48.42,331.47 59.15,335.14C62.23,336.2 65.33,336.83 65.44,341.04C65.54,345.06 68.77,343.36 70.8,343.62C73.53,343.99 73.64,342.02 73.64,340.07C73.63,337.42 73.64,334.78 73.64,332.13L73.94,332.13C73.94,330.02 74.17,327.87 73.88,325.79C73.57,323.57 75.54,320.04 70.99,319.83C68.07,319.69 65.21,319.18 65.32,323.86C65.4,326.97 63.06,325.58 61.31,325.11C58.37,324.32 57.69,322.29 58.02,319.68C58.39,316.7 56.51,312.9 60.2,311.09ZM49.24,319.78C45.89,321.24 43.31,318.64 39.44,317.38C43.43,316.39 46.04,313.29 49.37,315.49C50.05,315.94 49.85,319.51 49.24,319.78Z" style="fill:white;fill-rule:nonzero;"/>
    </g>
    <g transform="matrix(1,0,0,1,0,-45)">
        <path d="M485.11,318.19C485.5,427.31 396.31,516.54 286.64,516.73C177.78,516.93 88.76,428.37 87.55,320.25C86.36,214.82 170.68,120.79 285.77,119.77C395.4,118.79 484.71,208.03 485.11,318.19Z" style="fill:rgb(1,2,1);fill-rule:nonzero;"/>
    </g>
    <g transform="matrix(1,0,0,1,0,-45)">
        <path d="M390.29,112.84C385.68,109.8 384.23,112.76 382.48,116.45C383.22,110.6 386.78,105.75 383.74,100.17C382.89,98.6 383.54,97.72 385.14,97.42C392.19,96.09 394.63,91.35 394.43,84.79C394.21,77.76 389.01,74.8 383.52,72.62C373.48,68.63 363.25,65.12 353.15,61.29C351.21,60.55 349.38,59.98 348.41,62.17C347.62,63.97 345.88,67.04 347.91,67.9C355.33,71.02 351.04,75.36 349.65,79.39C347.5,85.6 345.19,91.75 342.97,97.93C342.02,100.6 341.02,103.05 337.38,101.19C333.53,99.22 333.97,102.9 332.85,104.63C331.18,107.21 332.46,108.5 334.77,109.35C342.19,112.1 349.63,114.82 357.06,117.55C359.25,118.35 360.47,117.6 361.15,115.37C361.74,113.44 363.71,111.02 360.93,109.95C355.35,107.8 357.41,104.49 358.93,101.08C360.05,98.56 359.39,94.19 364.75,96.23C369.38,97.99 371.12,100.25 368.74,105.12C367.51,107.66 367.03,110.64 366.61,113.48C365.62,120.27 369.52,124.01 375.44,125.6C381.07,127.1 386.92,127.05 389.59,120.56C390.48,118.42 395.14,116.04 390.29,112.84ZM378.01,85.49C377.76,87.6 376.33,90.21 372.14,89.36C369.2,88.77 364.48,89.35 365.14,84.75C365.56,81.86 365.09,76.21 370.39,76.9C373.8,77.34 378.64,78.33 378.01,85.49Z" style="fill:rgb(4,4,4);fill-rule:nonzero;"/>
    </g>
    <g transform="matrix(1,0,0,1,0,-45)">
        <path d="M87.56,395.63C86.03,389.23 84.36,382.86 82.52,376.54C81.85,374.25 81.77,371.26 77.57,372.02C74.12,372.65 73.75,374.01 73.59,377.26C73.27,383.84 66.77,381.58 63.11,383.02C59.96,384.26 60.21,380.05 59.56,378.16C57.91,373.39 61.67,372.44 65.04,371.38C67.81,370.51 70.76,369.98 73.27,368.63C79.03,365.51 80.48,357.78 76.86,351.2C73.95,345.91 67.47,343.82 61.79,346.24C60.28,346.88 58.71,347.23 59.19,349.42C59.54,351 59.92,352.56 61.71,353.12C63.24,353.6 65.21,352.03 66.53,354.05C61.25,356.86 53.98,356.36 51.71,363.58C44.21,358.81 39.28,358.03 34.67,361.2C28.68,365.31 28.53,371.25 30.09,377.51C32.71,387.97 35.55,398.39 38.07,408.88C38.66,411.32 39.29,412.74 42.14,412.27C44.68,411.84 47.08,411.4 46.42,408.02C45.75,404.57 47.53,403.36 50.52,402.61C58.19,400.69 65.8,398.48 73.48,396.6C75.91,396.01 78.94,394.96 79.78,399.01C80.72,403.54 83.93,401.16 86.08,400.77C89.32,400.18 88,397.46 87.56,395.63ZM52.28,384.09C51.94,388.24 46.5,388.07 43.43,388.02C38.36,387.94 40.11,382.9 39.75,379.99C39.23,375.84 43.01,375.25 45.78,374.25C51.32,375.55 52.59,380.43 52.28,384.09Z" style="fill:rgb(4,4,4);fill-rule:nonzero;"/>
    </g>
    <g transform="matrix(1,0,0,1,0,-45)">
        <path d="M262.72,105.84C248.76,108.72 234.8,111.64 220.85,114.62C217.67,115.3 216.71,113.55 216.02,110.98C215.42,108.73 214.89,106.87 218.22,106.48C222.56,105.97 222.02,102.81 221.4,99.88C220.04,93.45 218.53,87.05 217.11,80.63C216.23,76.66 217.71,70.83 209.9,72.78C208,73.26 207.7,70.34 207.4,68.52C207.03,66.35 207.64,64.86 209.91,64.4C224.39,61.48 238.88,58.59 253.36,55.68C256.24,55.1 256.94,56.6 257.23,59.14C257.59,62.27 258.31,65.38 259.06,68.45C259.8,71.43 261.89,74.57 257.13,76.2C252.93,77.64 251.49,75.12 250.35,71.85C250.13,71.2 249.36,70.73 248.84,70.17C244.23,63.86 238.25,66.92 233.12,68.59C229.38,69.81 231.95,73.47 232.63,75.99C233.03,77.46 232.15,80.23 235.26,79.81C237.99,79.44 238.62,77.3 238.2,75.08C237.5,71.41 240.34,71.6 242.39,70.77C246.98,68.92 245.39,73.94 247.27,75.08C248.13,80 248.87,84.94 249.9,89.82C250.38,92.09 250.98,93.89 247.76,94.45C245.32,94.88 242.8,96.9 241.88,92.43C241.42,90.19 240.09,87.67 236.88,88.92C233.55,90.23 236.18,92.66 236.36,94.32C236.69,97.29 235.61,102.36 240.79,101.66C245.99,100.95 252.34,100.76 253.9,93.66C254.23,92.13 254.28,90.48 254.11,88.93C253.66,84.68 256.9,83.11 259.45,84.28C266.65,87.59 263.22,95.7 265.97,101.19C267.55,104.34 265.39,105.29 262.72,105.84Z" style="fill:rgb(4,5,5);fill-rule:nonzero;"/>
    </g>
    <g transform="matrix(1,0,0,1,0,-45)">
        <path d="M514.43,185.59C508.88,175.99 502.94,166.61 497.05,157.21C496.41,156.18 496.19,153.6 493.81,155.23C492.19,156.35 488.64,157.13 489.93,159.35C493.76,165.96 488.1,166.88 484.69,169.11C479.16,172.72 473.5,176.14 467.88,179.62C465.07,181.36 462.29,183.04 459.91,178.92C458.14,175.85 456.41,178.4 454.8,179.2C452.55,180.32 452.92,181.79 454.14,183.71C458.13,189.93 461.89,196.3 465.8,202.57C466.71,204.03 467.52,206.2 469.91,204.23C471.35,203.04 474.72,202.83 473.01,199.89C470.1,194.86 473.8,193.27 477.04,191.56C479.75,190.14 482.22,185.63 485.69,191.53C488.63,196.53 487.47,199.14 482.91,201.55C481.05,202.53 479.29,203.76 477.66,205.1C472.26,209.51 471.84,215.73 476.26,221.94C480.56,227.96 486,227.23 491.77,224.73C493.88,223.82 495.65,222.63 494.1,219.96C492.99,218.05 491.59,217.51 489.54,218.92C488.56,219.59 487.19,219.71 486,220.07C488.87,213.97 497.24,212.89 497.64,204.81C497.71,203.44 499.16,204.36 500.09,204.73C505.87,207.02 511.22,206.48 515.05,201.25C518.85,196.07 517.27,190.51 514.43,185.59ZM498.61,193.6C494.19,192.15 490.79,188.37 490.71,184.59C490.62,180.7 496.26,178.43 499.41,178.3C503.69,178.13 504.84,183.46 505.34,186.95C505.92,191.01 501.88,192.32 498.61,193.6Z" style="fill:rgb(4,4,4);fill-rule:nonzero;"/>
    </g>
    <g transform="matrix(1,0,0,1,0,-45)">
        <path d="M158.92,146.17C155.08,149.46 152.66,156.14 145.5,153.71C135.12,150.18 124.76,146.58 113.61,144.08C117.7,148.72 121.8,153.36 125.88,158.01C127.95,160.37 130.06,162.35 133.09,159.26C136.1,156.2 137.01,159.81 138.47,161.11C140.38,162.82 139.26,164.16 137.65,165.53C133.41,169.13 129.24,172.82 125.16,176.6C123.56,178.08 122.23,178.86 120.62,176.79C119.45,175.27 116.61,173.99 119.23,171.69C123.35,168.08 120.32,165.74 118.03,163.17C113.98,158.63 110.11,153.9 105.8,149.61C102.91,146.73 100.95,140.31 94.73,145.98C93.05,147.51 91.94,144.29 90.61,143.23C88.89,141.87 89.65,140.52 91.01,139.32C95.78,135.12 100.53,130.9 105.3,126.7C107.54,124.73 109.65,126.02 111.92,126.84C121.32,130.22 130.78,133.45 142.55,137.55C137.31,131.72 133.53,127.65 129.92,123.43C127.68,120.81 125.56,118.78 122.17,121.75C119.62,123.99 118.53,121.61 117.15,120.11C115.36,118.16 116.44,116.89 118,115.53C122.2,111.89 126.38,108.22 130.47,104.45C132.38,102.69 133.69,103.42 135.11,105.01C136.33,106.36 138.22,107.55 136.06,109.49C132.46,112.74 134.99,114.96 137.18,117.4C143.55,124.5 150,131.53 156.07,138.88C157.7,140.84 162.99,142.69 158.92,146.17Z" style="fill:rgb(4,4,4);fill-rule:nonzero;"/>
    </g>
    <g transform="matrix(1,0,0,1,0,-45)">
        <path d="M542.19,268.69C538.65,269.72 535.11,270.78 531.53,271.71C529.3,272.29 526.96,273.43 525.97,269.7C525.25,267.02 524.32,265.45 527.82,263.46C535.03,259.36 536.15,252.27 531.76,245.3C529.31,241.42 526.71,244.72 524.2,245.05C522.41,245.28 519.91,245.3 520.18,247.8C520.49,250.58 522.7,251.68 525.48,251.09C528.91,250.36 529.42,252.5 529.88,255.09C530.41,258.13 528.29,258.67 526.26,259.25C521.43,260.61 516.49,261.61 511.76,263.24C509.01,264.19 507.32,264.36 506.37,261.18C505.65,258.77 504.78,256.69 508.35,255.68C510.7,255.02 512.98,253.5 511.75,250.48C510.44,247.28 507.48,249.46 506.38,250.12C503.77,251.71 497.87,248.94 498.67,255.26C499.85,264.5 504.2,268.4 512.78,267.84C517.07,265.61 516.97,269.63 517.98,272.07C519.53,275.82 516.2,275.88 514.23,276.57C503.123,280.457 496.03,276.793 492.95,265.58C490.48,256.7 487.64,247.92 485.41,238.99C484.87,236.84 481.96,233.68 486.73,231.82C490.34,230.41 492.07,230.96 493.04,234.75C493.86,237.93 496.14,236.57 498.17,235.99C505.04,234.05 512.01,232.44 518.77,230.2C522.15,229.08 528.22,229.79 525.58,222.58C524.86,220.62 527.8,220.17 529.47,219.66C531.54,219.02 533.07,219.59 533.72,221.85C537.69,235.78 541.66,249.71 545.65,263.64C546.55,266.76 544.72,267.96 542.19,268.69Z" style="fill:rgb(4,4,4);fill-rule:nonzero;"/>
    </g>
    <g transform="matrix(1,0,0,1,0,-45)">
        <path d="M83.73,165.12C68.92,165.04 54.83,180.18 54.81,196.18C54.8,209.61 69.01,222.88 83.32,222.8C97.18,222.72 111.48,207.09 111.79,191.69C112.07,177.77 98.8,165.2 83.73,165.12ZM98.66,203.71C96.75,206.81 93.72,208.96 89.99,208.03C81.05,205.81 73.37,201.33 67.54,194.02C64.97,190.81 65.84,187.53 67.5,184.4C69.22,181.14 71.97,179.25 77.83,179.66C85.49,181.53 93.61,186.01 99.46,194.08C101.89,197.42 100.48,200.75 98.66,203.71Z" style="fill:rgb(4,4,4);fill-rule:nonzero;"/>
    </g>
    <g transform="matrix(1,0,0,1,0,-45)">
        <path d="M543.66,378.97C542.45,381.67 540.68,383.58 541.8,387.38C542.86,390.98 540.36,394.44 535.18,392.91C532.66,392.16 530.05,391.62 527.44,391.24C522.8,390.56 520.51,388.28 521.55,383.42C523.21,381.42 525.73,381.52 527.93,380.89C533.76,379.22 536.2,374.75 537.42,369.4C537.97,366.97 537.51,364.57 534.95,363.33C531.8,361.8 530.72,364.35 529.6,366.36C526.44,372.04 523.39,377.79 520.3,383.51C512.29,389.89 505.59,390.75 498.69,386.28C492.88,382.52 490.48,374.5 492.17,365.7C493.03,361.23 494.48,357.07 496.82,353.21C497.64,351.87 499.22,350.64 498.66,349.04C495.09,338.76 500.7,340.29 507.32,341.84C518.63,344.48 518.68,344.25 519.02,351.36C521.86,349.87 524.46,347.9 527.39,347.08C536.83,344.41 546.12,351.2 547.14,361.29C547.76,367.5 546.15,373.36 543.66,378.97Z" style="fill:rgb(4,4,4);fill-rule:nonzero;"/>
    </g>
    <g transform="matrix(1,0,0,1,0,-45)">
        <path d="M550.57,317.44C551.98,312.52 552.31,307.63 551.16,302.56C549.47,295.11 546.33,289.16 537.87,287.88C529.31,286.6 523.66,290.3 520.36,297.99C520.12,297.12 519.86,296.25 519.68,295.37C519.16,292.82 520.9,288.09 516.54,288.76C510.35,289.72 503.84,287.27 498.03,290.63C497.56,290.9 497.5,292.95 498,293.62C501.66,298.51 498.77,303.2 498.02,308.07C497.11,314.1 497.39,320.18 500.37,325.83C503.32,331.4 507.53,334.65 514.17,334.72C520.55,334.79 525.49,332.89 528.66,327.03C529.37,325.71 529.2,323.16 531.76,323.38C531.21,326.35 529.58,330.41 533.05,331.57C538.59,333.41 544.9,332.53 550.21,330.58C553.22,329.47 551.52,325.34 549.65,322.45C548.97,321.41 550.1,319.11 550.57,317.44ZM516.1,314.83C515.48,316.92 514.51,320 511.58,319.32C509.06,318.75 507.52,316.58 507.18,313.51C506.17,304.26 511.59,297.81 520.25,298.34C518.9,303.85 517.71,309.39 516.1,314.83ZM531.96,323.15C530.47,317.36 533.46,312.2 534.54,306.78C534.93,304.87 536.05,302.32 538.64,302.98C540.57,303.47 541.95,305.19 542.41,307.61C543.83,315.11 540.2,320.68 531.96,323.15Z" style="fill:rgb(5,5,5);fill-rule:nonzero;"/>
    </g>
    <g transform="matrix(1,0,0,1,0,-45)">
        <path d="M327.97,56.45C321.37,56.11 314.75,56.05 308.14,55.89C308.43,59.11 305.84,63.57 312.16,64.09C314.42,64.28 314.44,66.69 314.32,68.57C313.8,76.45 313.38,84.33 312.62,92.19C312.14,97.15 308.43,98.67 304.09,98.43C299.7,98.19 296.69,96.35 296.72,91.12C296.76,82.95 297.36,74.83 298.33,66.72C298.58,64.63 299.31,62.63 301.36,62.88C307.82,63.67 306.09,59.09 306.42,55.79C297.74,52.81 288.53,54.72 279.71,52.94C277.3,52.45 276.19,53.85 276.15,55.99C276.12,57.89 275.05,60.44 278.28,61.05C282.59,61.85 282.54,65.04 282.3,68.32C281.78,75.43 281.01,82.54 280.79,89.66C280.5,98.74 285.23,104.75 294.11,106.57C299.27,107.63 304.52,108.1 309.84,106.93C317.08,105.35 321.84,101.5 322.59,93.86C323.31,86.51 323.64,79.12 324.37,71.77C324.66,68.86 324.01,64.85 328.9,64.97C333,65.07 331.7,62.11 332,60C332.47,56.78 329.93,56.56 327.97,56.45Z" style="fill:rgb(4,4,4);fill-rule:nonzero;"/>
    </g>
    <g transform="matrix(1,0,0,1,0,-45)">
        <path d="M60.2,311.09C61.98,310.22 65.49,307.77 65.58,313.09C65.64,316.75 68.53,316.1 70.83,316.19C74.05,316.32 73.87,313.99 73.94,311.84C74.19,304.98 74.43,298.12 74.69,291.25C74.76,289.27 74.49,287.31 72.18,286.99C70.19,286.72 66.98,286 66.57,288.43C65.43,295.28 59.81,294.85 55.26,296.26C45.94,299.16 36.69,302.3 27.26,304.78C19.97,306.69 23.58,312.41 22.58,316.44C21.7,319.97 22.54,322.63 27,324C37.83,327.35 48.42,331.47 59.15,335.14C62.23,336.2 65.33,336.83 65.44,341.04C65.54,345.06 68.77,343.36 70.8,343.62C73.53,343.99 73.64,342.02 73.64,340.07C73.63,337.42 73.64,334.78 73.64,332.13L73.94,332.13C73.94,330.02 74.17,327.87 73.88,325.79C73.57,323.57 75.54,320.04 70.99,319.83C68.07,319.69 65.21,319.18 65.32,323.86C65.4,326.97 63.06,325.58 61.31,325.11C58.37,324.32 57.69,322.29 58.02,319.68C58.39,316.7 56.51,312.9 60.2,311.09ZM49.24,319.78C45.89,321.24 43.31,318.64 39.44,317.38C43.43,316.39 46.04,313.29 49.37,315.49C50.05,315.94 49.85,319.51 49.24,319.78Z" style="fill:rgb(5,5,5);fill-rule:nonzero;"/>
    </g>
    <g transform="matrix(1,0,0,1,0,-45)">
        <path d="M84.9,251.76C84.05,262.78 80.67,272.51 69.75,277.58C58.72,282.71 48.35,279.98 39.18,273.1C28.82,265.32 27.15,249.47 34.82,238.06C35.84,236.55 38.09,234.64 37.73,233.66C36.32,229.83 35.98,224.77 39.73,224.45C46.14,223.91 52.64,226.66 58.58,229.51C60.24,230.31 58.84,232.9 58.27,234.64C57.66,236.51 57.06,237.79 54.46,237.48C47.06,236.59 41.6,239.7 40.73,247.23C39.87,254.6 45.85,257.61 51.62,260.04C55.79,261.8 60.15,262.84 64.77,262.54C69.69,262.23 73.58,260.33 75.02,255.34C76.51,250.18 75.23,245.35 70.14,243.31C64.48,241.04 65.71,237.22 67.53,234C69.98,229.67 73.21,233.42 75.57,234.68C82.23,238.25 85.49,243.99 84.9,251.76Z" style="fill:rgb(4,4,4);fill-rule:nonzero;"/>
    </g>
    <g transform="matrix(1,0,0,1,0,-45)">
        <path d="M475.31,135.26C467.57,124.32 456.6,116.6 447.11,107.41C445.17,105.53 443.69,107.07 442.5,108.56C441.46,109.88 439.31,111.19 441.65,113.1C445.97,116.62 442.74,119.03 440.45,121.53C435.8,126.62 431.04,131.61 426.43,136.73C424.03,139.39 421.97,142.2 417.96,138.88C415.47,136.83 414.3,139.43 412.88,140.86C411.58,142.17 411.22,143.37 412.81,144.82C418.89,150.34 424.91,155.93 430.96,161.5C432.72,163.11 434.24,162.65 435.74,161.06C437.05,159.67 438.73,158.09 436.86,156.37C430.18,150.24 437.29,147.43 440.18,144.6C443.99,140.86 445.73,146.29 448.16,147.95C451.41,150.17 453.99,153.27 457.86,154.73C466.82,158.14 476.9,151.56 477.06,141.65C477.34,139.57 476.68,137.21 475.31,135.26ZM457.39,142.74C453.41,142.82 448.47,140.18 448.62,136.42C448.75,132.81 452.68,128.17 456.66,127.85C459.97,127.6 462.32,131.97 463.74,135.47C462.69,138.94 461.15,142.66 457.39,142.74Z" style="fill:rgb(4,5,4);fill-rule:nonzero;"/>
    </g>
    <g transform="matrix(1,0,0,1,0,-45)">
        <path d="M202.86,121.93C195.35,125.74 187.82,129.51 180.28,133.27C178.44,134.19 177.55,133.41 176.71,131.61C175.79,129.63 174.2,127.42 176.84,126.21C182.19,123.75 179.95,120.56 178.31,117.23C175.17,110.87 172.2,104.42 168.82,98.19C167.86,96.42 167.81,92.71 164.69,93.61C162.11,94.35 160.87,97.09 160.9,100.15C161.38,101.91 161.7,103.73 162.38,105.4C163.71,108.67 160.74,108.73 159.2,109.69C157.45,110.78 155.79,110.77 154.71,108.45C152.72,104.17 150.65,99.93 148.47,95.74C147,92.92 149,92.01 150.85,91.09C163.13,85.04 175.48,79.13 187.7,72.96C190.4,71.6 191.92,71.55 193.24,74.53C194.95,78.36 196.97,82.05 198.86,85.8C199.91,87.89 200.41,89.69 197.52,90.89C195.3,91.81 193.36,93.35 191.56,90.19C190.68,88.64 189.32,87.27 187.91,86.13C185.98,84.56 183.58,83.68 181.36,85.37C178.73,87.36 181.34,89.23 182.11,90.86C185.02,97.03 188.21,103.08 191.32,109.16C193.23,112.89 193.85,118.4 200.57,114.73C202.77,113.53 203.3,116.51 204.13,117.97C205.06,119.62 204.52,121.08 202.86,121.93Z" style="fill:rgb(4,5,4);fill-rule:nonzero;"/>
    </g>
    <g transform="matrix(1,0,0,1,0,-45)">
        <path d="M293.09,129.61C396.41,132.66 483,221.6 475.23,332.04C468.22,431.72 382.19,510.34 279.72,506.94C176.37,503.51 89.92,414.55 97.46,303.61C104.19,204.73 194.75,123.8 293.08,129.61L293.09,129.61Z" style="fill:rgb(209,209,209);fill-rule:nonzero;"/>
    </g>
    <g transform="matrix(1,0,0,1,0,-45)">
        <path d="M518.06,353.77C515.52,358.72 513.1,363.64 510.48,368.45C509.25,370.72 507.76,373.59 504.52,371.94C501.71,370.51 500.96,368 501.84,364.58C503.98,356.26 508.91,352.69 518.06,353.77Z" style="fill:rgb(242,241,241);fill-rule:nonzero;"/>
    </g>
    <g transform="matrix(1,0,0,1,0,-45)">
        <path d="M520.45,298.35C520.38,298.34 520.31,298.34 520.25,298.34C520.26,298.27 520.28,298.19 520.3,298.12L520.45,298.35Z" style="fill:rgb(245,245,244);fill-rule:nonzero;"/>
    </g>
    <g transform="matrix(1,0,0,1,0,-45)">
        <path d="M531.77,323.21C531.83,323.19 531.9,323.17 531.96,323.15C531.96,323.24 532,323.32 532.02,323.41C532.02,323.41 531.79,323.22 531.77,323.21Z" style="fill:rgb(243,242,241);fill-rule:nonzero;"/>
    </g>
    <g transform="matrix(1,0,0,1,0,-45)">
        <path d="M136.91,376.85C133.32,378.81 134.51,384.14 130.31,383.03C126.5,382.02 127.95,378.29 127.75,375.57C127.19,367.84 128.77,360.33 131.24,353.17C136,339.4 145.89,331.62 160.71,331.1C165.23,330.94 166.55,330.39 165.44,325.31C158.56,293.68 151.82,262.03 149.77,229.56C149.34,222.75 148.82,215.92 148.39,209.08C148.03,203.24 150.6,201.3 155.94,202.24C160.72,203.09 167.17,206.94 169.77,204.23C172.36,201.53 170.94,194.71 170.73,189.73C170.42,182.51 173.71,182.44 179.01,184.85C189.02,189.4 198.51,194.93 209.08,201.19C209.08,196.63 208.89,193.05 209.14,189.5C209.35,186.49 207.49,182.49 210.9,180.72C214.67,178.77 216.98,182.76 219.6,184.62C224.93,188.4 230.03,192.49 236.19,197.18C236.19,192.15 236.21,188.04 236.19,183.93C236.17,181.78 236.04,179.49 238.56,178.64C240.75,177.9 241.85,179.86 243.17,181.08C262.51,198.89 277.47,219.61 285.7,244.8C285.92,245.46 286.36,246.05 287.39,247.94C292.39,233.72 298.26,221.1 306.29,209.57C313.44,199.3 321.56,189.92 330.82,181.51C332.32,180.15 333.54,177.71 336.04,178.7C338.86,179.81 338.21,182.59 338.23,184.91C338.26,188.61 338.23,192.32 338.23,197.05C345.05,191.9 351.21,187.16 357.49,182.57C359.12,181.38 360.82,179.36 363.1,180.29C365.82,181.41 365.35,184.14 365.35,186.5L365.35,200.56C375.78,195.14 385.71,190 395.61,184.83C401.29,181.86 403.95,183.17 403.7,189.92C403.52,194.9 402.29,201.22 404.78,204.48C406.57,206.83 413.33,203.25 417.88,202.33C423.31,201.23 426.24,202.79 426.06,209.27C425.37,235.05 421.81,260.48 417.1,285.76C414.58,299.3 411.56,312.75 408.69,326.22C408.02,329.35 408.33,330.77 412.29,331.12C436.02,333.26 452.06,356.19 446.7,379.73C446.3,381.47 445.6,382.86 443.95,383.11C439.72,383.75 441.21,378.53 437.68,377.14C436.94,382.25 436.26,387.33 432.19,390.95C430.46,392.49 428.78,393.59 426.56,392.58C424.62,391.7 424.22,389.85 424.45,387.86C425.35,379.96 420.58,378.47 414.14,378.63C398.12,379.02 383.8,384.99 370.67,393.27C348.09,407.5 328.15,424.57 315.64,448.95C309.79,460.35 301.28,467.94 287.12,467.88C272.97,467.83 264.99,459.96 258.63,448.82C239.82,415.86 212.44,393.23 176.27,381.29C170.76,379.47 165.18,378.37 159.3,378.58C153.45,378.79 149.3,380.32 149.96,387.25C150.17,389.48 150.04,391.72 147.71,392.67C145.07,393.75 143.33,391.98 141.56,390.22C137.98,386.65 137.33,382.05 136.91,376.84L136.91,376.85Z" style="fill:rgb(3,4,4);fill-rule:nonzero;"/>
    </g>
    <g transform="matrix(1,0,0,1,0,-45)">
        <path d="M241.11,374.36C262.04,372.9 263.79,373.74 265.53,385.64C268.16,384.83 267.83,382.69 267.84,380.8C267.93,348.73 267.99,316.66 268.09,284.59C268.09,282.03 268.09,279.77 264.44,280.08C260.44,280.43 261.7,283.45 261.76,285.47C262.44,309.15 263.26,332.82 264.06,356.91C258.32,350.09 252.38,343.29 243.96,339.32C234.36,334.8 224.3,333.57 213.86,334.13C211.85,334.24 209.96,334.67 209.59,336.81C209.2,339.07 210.92,339.93 212.91,340.44C216.61,341.39 218.2,343.7 218.95,347.64C220.12,353.8 222.53,359.69 228.07,366.6C195.39,358.67 164.82,353.68 135.15,368.97C131.24,350.82 148.34,333.65 167.22,337.72C173.85,339.15 174.39,338.21 172.93,331.82C165.65,300.13 159,268.33 156.15,235.84C155.5,228.47 155.03,221.13 154.77,213.75C154.61,209.05 155.67,208.08 160.68,209.29C186.13,215.44 206.89,229.8 226.58,246C234.35,252.39 243.38,258.46 248.33,266.76C254.58,277.24 260.38,275.08 269.6,272.47C283.94,268.4 298.87,268.72 312.96,275.07C317.36,277.05 320.52,276.81 322.11,271.65C322.48,270.45 323.03,269.14 323.9,268.27C348.04,244.21 373.5,222.04 406.85,211.33C419.57,207.24 420.08,207.33 419.48,220.81C418.22,248.94 413.16,276.59 407.64,304.14C405.69,313.88 403.2,323.51 400.91,333.17C399.93,337.3 400.91,339.54 405.63,338.21C422.32,333.5 439.18,342.38 439.89,369.13C410.04,353.77 379.45,358.42 347.65,366.37C351.46,358.7 355.08,352.16 356.13,344.62C356.38,342.78 358.45,341.03 360.65,340.57C362.86,340.1 365.24,339.6 364.8,336.87C364.29,333.76 361.39,334.23 359.03,334.1C338.78,332.99 322.37,340.05 309.96,356.84C313.2,342.58 309.96,328.28 311.96,314.04C313.38,303.9 312.52,293.45 312.72,283.14C312.77,280.67 311.51,280.02 309.26,280.05C305.89,280.09 306.38,282.47 306.37,284.49C306.34,296.42 306.35,308.34 306.35,320.27C306.35,338.82 306.27,357.38 306.47,375.93C306.5,379.15 305.27,382.86 308.76,386.11C309.74,380.87 309.7,374.83 316.22,374.04C321.42,373.41 326.77,373.91 333.71,373.91C319.17,384.25 307.43,395.39 299.72,410.05C296.42,416.32 293.55,422.82 290.65,429.29C289.81,431.17 289.84,433.94 287.23,433.98C284.58,434.02 284.53,431.28 283.78,429.35C277.83,413.95 270.01,399.74 258.02,388.04C253.08,383.22 247.56,379.17 241.09,374.32L241.11,374.36Z" style="fill:rgb(242,122,34);fill-rule:nonzero;"/>
    </g>
    <g transform="matrix(1,0,0,1,0,-45)">
        <path d="M430.27,379.3C421.01,369.08 410.04,372.11 399.26,374.84C372.35,381.67 351.13,397.65 332.01,416.93C323.43,425.58 315.94,434.94 310.63,446.06C307.68,452.24 303.53,457.85 296.61,460.48C294.45,461.3 291.52,462.74 290.62,459.88C289.89,457.6 288.46,453.91 293.96,452.99C297.61,452.38 302.48,450.88 303.11,445.64C303.49,442.47 303.65,438.67 299.88,437.56C293.96,435.83 295.52,432.4 297.04,428.65C312.61,390.27 340.58,369.01 382.42,365.59C394.99,364.56 407.06,365.87 419.36,367.31C427,368.2 428.88,373.22 430.28,379.29L430.27,379.3Z" style="fill:rgb(255,255,254);fill-rule:nonzero;"/>
    </g>
    <g transform="matrix(1,0,0,1,0,-45)">
        <path d="M143.47,381.09C145.2,370.1 151.37,367.07 159.17,366.2C183,363.55 206.46,364.39 228.66,374.67C253.5,386.18 269.14,405.77 278.14,431.2C279.15,434.06 279.36,435.26 276.3,436.42C272.83,437.74 271.04,440.31 271.17,444.39C271.32,449.08 274.44,450.6 277.97,451.98C279.4,452.54 280.88,452.96 282.33,453.46C285.76,454.67 284.09,457.62 283.9,459.51C283.57,462.81 280.59,461.5 278.93,460.93C271.7,458.5 267.33,452.83 263.96,446.44C248.51,417.12 224.07,397.31 195.42,382.03C185.68,376.83 174.95,374.25 164.14,372.49C156.52,371.25 149.53,373.4 143.46,381.08L143.47,381.09Z" style="fill:rgb(255,255,254);fill-rule:nonzero;"/>
    </g>
    <g transform="matrix(1,0,0,1,0,-45)">
        <path d="M177.16,190.67C187.08,194.99 195.84,199.65 204.08,205.19C222.05,217.27 239.09,230.44 252.41,247.78C255.61,251.95 258.89,256.1 261.71,260.52C262.76,262.16 266.25,263.99 263.61,266.28C260.89,268.64 257.88,267.58 255.28,264.95C248.77,258.39 242.2,251.9 235.16,245.85C218.51,231.56 201.09,218.54 180.69,209.96C178.25,208.93 176.93,207.58 177.09,204.68C177.33,200.28 177.15,195.87 177.15,190.67L177.16,190.67Z" style="fill:rgb(254,254,253);fill-rule:nonzero;"/>
    </g>
    <g transform="matrix(1,0,0,1,0,-45)">
        <path d="M396.45,190.78C399.43,202.86 396.24,209.44 384.43,214.74C360.9,225.31 341.62,242.47 323.4,260.59C321.71,262.27 319.94,263.87 318.36,265.64C316.2,268.05 313.4,268.09 311.2,266.63C307.81,264.39 311.4,262.47 312.43,260.97C326.12,241.05 342.55,224.17 363.04,210.7C373.82,203.61 384.69,197.06 396.46,190.79L396.45,190.78Z" style="fill:rgb(254,254,253);fill-rule:nonzero;"/>
    </g>
    <g transform="matrix(1,0,0,1,0,-45)">
        <path d="M358.1,189.23C361.49,201.33 356.92,208.05 347.96,214.52C331.16,226.66 317.5,242.18 306.4,259.77C304.25,263.18 301.97,265.75 297.24,263.45C308.63,231.6 331.73,209.41 358.1,189.23Z" style="fill:rgb(253,253,253);fill-rule:nonzero;"/>
    </g>
    <g transform="matrix(1,0,0,1,0,-45)">
        <path d="M215.11,188.34C242.71,209.34 265.75,231.6 277.22,263.45C273.18,265.41 270.63,263.94 268.51,260.55C256.18,240.85 240.64,223.93 221.53,210.79C213.1,204.99 216.22,197.68 215.11,188.34Z" style="fill:rgb(253,253,253);fill-rule:nonzero;"/>
    </g>
    <g transform="matrix(1,0,0,1,0,-45)">
        <path d="M281.45,254.4C275.92,246.98 272.13,238.51 266.69,231C261.71,224.13 256.61,217.27 250.37,211.73C243.48,205.61 240.82,198.92 243.33,189.23C262.15,207.71 275.79,228.67 281.46,254.4L281.45,254.4Z" style="fill:rgb(251,251,251);fill-rule:nonzero;"/>
    </g>
    <g transform="matrix(1,0,0,1,0,-45)">
        <path d="M331.32,189.31C333.35,198.73 330.95,205.28 324.22,211.63C311.92,223.24 302.23,237.05 295.28,252.6C294.84,253.58 294.73,254.63 293.31,254.45C293.24,238.86 310.83,208.51 331.32,189.31Z" style="fill:rgb(251,251,251);fill-rule:nonzero;"/>
    </g>
    <g transform="matrix(1,0,0,1,0,-45)">
        <path d="M344.52,342.21C349.12,341.85 349.68,344.83 349.36,348.26C348.09,361.78 335.09,370.9 321.7,367.75C316.75,366.58 314.73,361 317.9,356.89C319.31,355.06 321.05,353.5 323.08,351.35C324.39,357.6 327.34,360.79 333.51,359.24C335.57,358.16 336.28,355.43 338.81,354.92C339.24,353.68 339.67,352.43 340.1,351.19C341.92,348.36 342.55,344.96 344.53,342.21L344.52,342.21Z" style="fill:rgb(85,183,72);fill-rule:nonzero;"/>
    </g>
    <g transform="matrix(1,0,0,1,0,-45)">
        <path d="M240.72,358.43C247.63,362 249.45,356.74 251.56,352.07C259.22,359.18 260.45,363.3 255.28,366.46C251.58,368.72 246.95,368.63 242.48,367.8C233.89,366.19 224.97,355.87 225.02,347.32C225.04,343.97 226.07,341.65 230.07,342.26C230.91,345.55 232.47,348.49 234.34,351.3C234.58,352.5 234.82,353.69 235.06,354.89C236.78,356.35 238.96,357.06 240.73,358.44L240.72,358.43Z" style="fill:rgb(84,183,72);fill-rule:nonzero;"/>
    </g>
    <g transform="matrix(1,0,0,1,0,-45)">
        <path d="M234.33,351.29C228.82,350.2 227.94,346.93 230.06,342.25C232.66,342.59 236.06,340.35 237.61,344.02C238.98,347.29 236.17,349.18 234.33,351.29Z" style="fill:rgb(241,244,238);fill-rule:nonzero;"/>
    </g>
    <g transform="matrix(1,0,0,1,0,-45)">
        <path d="M344.52,342.21C345.92,346.62 345.06,349.91 340.09,351.19C337.61,349.17 335.4,346.51 336.92,343.47C338.42,340.46 341.92,342.47 344.52,342.21Z" style="fill:rgb(239,241,236);fill-rule:nonzero;"/>
    </g>
    <g transform="matrix(1,0,0,1,0,-45)">
        <path d="M240.72,358.43C237.31,359.67 235.09,359 235.05,354.88C239.86,351.42 241.62,352.82 240.72,358.43Z" style="fill:rgb(226,236,219);fill-rule:nonzero;"/>
    </g>
    <g transform="matrix(1,0,0,1,0,-45)">
        <path d="M338.81,354.92C339.03,358.78 337.56,360.59 333.51,359.24C333.52,355.66 332.47,350.78 338.81,354.92Z" style="fill:rgb(237,242,234);fill-rule:nonzero;"/>
    </g>
</svg>
