<svg version="1.1" id="Layer_1" xmlns="http://www.w3.org/2000/svg" x="0" y="0" viewBox="0 0 310 95" xml:space="preserve"><style>.st0{fill:#fff}</style><path class="st0" d="M146.7 36.65c-2.09-1.06-4.54-1.64-7.28-1.64-9.38 0-15.59 6.04-15.59 15.45 0 9.42 6.58 15.03 15.06 15.03 7.75 0 15.22-4.79 15.36-15.24l.01-49h-7.57v35.4zm-7.54 22.36c-3.86 0-5.97-3.78-5.97-8.76 0-4.32 1.65-8.77 5.98-8.77 4.11 0 5.77 4.42 5.77 8.72-.01 5.27-2.25 8.81-5.78 8.81zM174.62 35.01c-2.74 0-5.19.58-7.28 1.64v-20.4h-7.57l.01 34c.14 10.45 7.61 15.24 15.36 15.24 8.49 0 15.06-5.61 15.06-15.03.01-9.41-6.2-15.45-15.58-15.45zm.27 24c-3.54 0-5.77-3.54-5.77-8.8 0-4.3 1.66-8.72 5.77-8.72 4.33 0 5.98 4.45 5.98 8.77-.01 4.97-2.11 8.75-5.98 8.75zM3.87 58.44c1.55 1.01 4.28 2.08 6.89 2.08 3.8 0 5.59-1.9 5.59-4.28 0-2.5-1.49-3.86-5.35-5.29-5.17-1.84-7.61-4.7-7.61-8.14 0-4.64 3.74-8.44 9.92-8.44 2.91 0 5.47.83 7.07 1.78l-1.31 3.8c-1.13-.71-3.21-1.66-5.88-1.66-3.09 0-4.81 1.78-4.81 3.92 0 2.38 1.72 3.45 5.47 4.87 4.99 1.9 7.55 4.4 7.55 8.68 0 5.05-3.92 8.68-10.76 8.68-3.15 0-6.06-.83-8.08-2.02l1.31-3.98zM54.15 49.17c0 10.64-7.37 15.27-14.32 15.27-7.79 0-13.79-5.71-13.79-14.8 0-9.63 6.3-15.27 14.26-15.27 8.26 0 13.85 6 13.85 14.8zm-22.82.29c0 6.3 3.63 11.05 8.74 11.05 4.99 0 8.74-4.7 8.74-11.17 0-4.87-2.44-11.05-8.62-11.05-6.19 0-8.86 5.71-8.86 11.17zM84.82 55.94c0 2.97.06 5.59.24 7.84h-4.64l-.3-4.7H80c-1.37 2.32-4.4 5.35-9.51 5.35-4.52 0-9.93-2.5-9.93-12.6V35.02h5.23v15.93c0 5.47 1.66 9.15 6.42 9.15 3.51 0 5.94-2.44 6.89-4.75.3-.77.48-1.72.48-2.67V35.02h5.23v20.92zM93.49 42.81c0-2.97-.06-5.41-.24-7.79h4.64l.3 4.75h.12c1.43-2.73 4.75-5.41 9.51-5.41 3.98 0 10.16 2.38 10.16 12.24v17.18h-5.23V47.21c0-4.64-1.72-8.5-6.66-8.5-3.45 0-6.12 2.44-7.01 5.35-.24.65-.36 1.54-.36 2.44v17.29h-5.23V42.81zM224.1 49.17c0 10.64-7.37 15.27-14.32 15.27-7.79 0-13.79-5.71-13.79-14.8 0-9.63 6.3-15.27 14.26-15.27 8.26 0 13.85 6 13.85 14.8zm-22.82.29c0 6.3 3.63 11.05 8.74 11.05 4.99 0 8.74-4.7 8.74-11.17 0-4.87-2.44-11.05-8.62-11.05-6.19 0-8.86 5.71-8.86 11.17zM256.73 49.17c0 10.64-7.37 15.27-14.32 15.27-7.79 0-13.79-5.71-13.79-14.8 0-9.63 6.3-15.27 14.26-15.27 8.26 0 13.85 6 13.85 14.8zm-22.82.29c0 6.3 3.63 11.05 8.74 11.05 4.99 0 8.74-4.7 8.74-11.17 0-4.87-2.44-11.05-8.62-11.05-6.19 0-8.86 5.71-8.86 11.17zM269.63 27.13v7.89h7.49V39h-7.49v15.51c0 3.57 1.01 5.59 3.92 5.59 1.43 0 2.26-.12 3.03-.36l.24 3.92c-1.01.42-2.62.77-4.64.77-2.44 0-4.4-.83-5.65-2.26-1.49-1.55-2.02-4.1-2.02-7.49V39h-4.46v-3.98h4.46v-7.29l5.12-.6zM283 21.59h5.23v17.95h.12c.83-1.49 2.14-2.79 3.74-3.68 1.55-.89 3.39-1.49 5.35-1.49 3.86 0 10.04 2.38 10.04 12.3v17.12h-5.23V47.27c0-4.64-1.72-8.56-6.66-8.56-3.39 0-6.06 2.38-7.01 5.23-.3.71-.36 1.49-.36 2.5v17.35H283v-42.2z"/><g><path class="st0" d="M7 80.28H2.52v-1.66h10.93v1.66H8.93v13.48H7V80.28zM54.67 78.61v6.33h7.14v-6.33h1.93v15.14H61.8v-7.1h-7.14v7.1h-1.91V78.61h1.92zM112.35 86.65h-5.74v5.46H113v1.64h-8.3V78.61h7.97v1.64h-6.07v4.78h5.74v1.62zM154.55 88.99l-1.53 4.76h-1.97l5.01-15.14h2.3l5.04 15.14h-2.04l-1.58-4.76h-5.23zm4.84-1.53l-1.45-4.36c-.33-.99-.55-1.89-.77-2.76h-.04c-.22.9-.46 1.82-.75 2.74l-1.44 4.38h4.45zM204.36 80.28h-4.49v-1.66h10.93v1.66h-4.51v13.48h-1.93V80.28zM256.75 86.65h-5.74v5.46h6.39v1.64h-8.3V78.61h7.97v1.64H251v4.78h5.74v1.62zM297.56 78.82c.96-.2 2.34-.31 3.66-.31 2.04 0 3.35.38 4.27 1.24.74.67 1.16 1.71 1.16 2.88 0 2-1.23 3.32-2.78 3.86v.07c1.14.4 1.82 1.48 2.17 3.05.48 2.11.83 3.57 1.14 4.16h-1.97c-.24-.45-.57-1.73-.99-3.62-.44-2.09-1.23-2.88-2.96-2.94h-1.79v6.56h-1.91V78.82zm1.91 6.89h1.95c2.04 0 3.33-1.15 3.33-2.88 0-1.95-1.38-2.81-3.39-2.83-.92 0-1.58.09-1.88.18v5.53z"/></g></svg>